<svg width="90" height="46" viewBox="0 0 90 46" fill="none" xmlns="http://www.w3.org/2000/svg">
<path fill-rule="evenodd" clip-rule="evenodd" d="M0.547241 5.27518C0.547241 2.75577 2.58963 0.713379 5.10904 0.713379H84.9105C87.4299 0.713379 89.4723 2.75577 89.4723 5.27518V45.1909H83.772C83.772 42.6715 81.7303 40.6291 79.2117 40.6291C76.6932 40.6291 74.6515 42.6715 74.6515 45.1909H70.0912C70.0912 42.6715 68.0495 40.6291 65.531 40.6291C63.0124 40.6291 60.9707 42.6715 60.9707 45.1909H56.4104C56.4104 42.6715 54.3687 40.6291 51.8502 40.6291C49.3316 40.6291 47.2899 42.6715 47.2899 45.1909H42.7297C42.7297 42.6715 40.688 40.6291 38.1694 40.6291C35.6508 40.6291 33.6091 42.6715 33.6091 45.1909H29.0489C29.0489 42.6715 27.0072 40.6291 24.4886 40.6291C21.97 40.6291 19.9283 42.6715 19.9283 45.1909H15.3681C15.3681 42.6715 13.3264 40.6291 10.8078 40.6291C8.28927 40.6291 6.24757 42.6715 6.24757 45.1909H0.547241V5.27518Z" fill="url(#paint0_linear_0_1168)"/>
<defs>
<linearGradient id="paint0_linear_0_1168" x1="54.6355" y1="49.2786" x2="95.9931" y2="-7.91899" gradientUnits="userSpaceOnUse">
<stop stop-color="#E717A7"/>
<stop offset="1" stop-color="#ED641C"/>
</linearGradient>
</defs>
</svg>
