<svg width="32" height="32" viewBox="0 0 32 32" fill="none" xmlns="http://www.w3.org/2000/svg">
<path d="M25.1774 7.675C23.5591 6.8925 21.8287 6.32381 20.0197 6C19.7975 6.41512 19.538 6.97346 19.359 7.41762C17.4359 7.11874 15.5306 7.11874 13.6429 7.41762C13.4639 6.97346 13.1985 6.41512 12.9743 6C11.1633 6.32381 9.431 6.89459 7.8127 7.67914C4.54859 12.7767 3.66374 17.7476 4.10616 22.648C6.2711 24.3188 8.36918 25.3338 10.4318 25.9979C10.9411 25.2736 11.3953 24.5035 11.7866 23.692C11.0414 23.3994 10.3276 23.0382 9.6532 22.6189C9.83213 22.482 10.0071 22.3387 10.1762 22.1914C14.2898 24.1798 18.7593 24.1798 22.8237 22.1914C22.9948 22.3387 23.1697 22.482 23.3467 22.6189C22.6703 23.0403 21.9546 23.4014 21.2093 23.6941C21.6006 24.5035 22.0529 25.2757 22.5641 26C24.6288 25.3358 26.7288 24.3209 28.8937 22.648C29.4129 16.9672 28.0069 12.0419 25.1774 7.675ZM12.3471 19.6343C11.1122 19.6343 10.0995 18.4429 10.0995 16.9921C10.0995 15.5413 11.0906 14.3479 12.3471 14.3479C13.6036 14.3479 14.6162 15.5392 14.5946 16.9921C14.5965 18.4429 13.6036 19.6343 12.3471 19.6343ZM20.6529 19.6343C19.418 19.6343 18.4053 18.4429 18.4053 16.9921C18.4053 15.5413 19.3963 14.3479 20.6529 14.3479C21.9093 14.3479 22.922 15.5392 22.9004 16.9921C22.9004 18.4429 21.9093 19.6343 20.6529 19.6343Z" fill="#E717A7"/>
</svg>
