<svg width="32" height="32" viewBox="0 0 32 32" fill="none" xmlns="http://www.w3.org/2000/svg">
<path d="M25.3012 25.3031H21.5972V19.5001C21.5972 18.1165 21.5722 16.3348 19.6703 16.3348C17.7411 16.3348 17.4457 17.8421 17.4457 19.3984V25.3027H13.7416V13.3724H17.2975V15.003H17.3455C17.7014 14.3944 18.2157 13.8938 18.8336 13.5545C19.4515 13.2152 20.1499 13.0498 20.8543 13.076C24.6087 13.076 25.3012 15.5459 25.3012 18.7586V25.3031ZM9.56184 11.7413C9.13663 11.7414 8.72093 11.6153 8.36733 11.3792C8.01373 11.143 7.73811 10.8072 7.57532 10.4144C7.41253 10.0215 7.36989 9.5892 7.45278 9.17211C7.53568 8.75502 7.74039 8.37188 8.04103 8.07114C8.34167 7.77041 8.72474 7.5656 9.14178 7.4826C9.55882 7.3996 9.9911 7.44215 10.384 7.60487C10.7768 7.76758 11.1126 8.04315 11.3488 8.39673C11.5851 8.75031 11.7112 9.16601 11.7112 9.59126C11.7112 10.1614 11.4848 10.7082 11.0817 11.1114C10.6786 11.5146 10.1319 11.7411 9.56184 11.7413V11.7413ZM11.4139 25.3027H7.70598V13.3724H11.4144L11.4139 25.3027ZM27.1461 4.00163H5.84436C5.60472 3.99871 5.36687 4.0431 5.14442 4.13224C4.92196 4.22138 4.71927 4.35353 4.54795 4.52112C4.37664 4.68871 4.24005 4.88845 4.14603 5.1089C4.052 5.32936 4.00238 5.56619 4 5.80585V27.1956C4.00569 27.6794 4.20319 28.1412 4.5491 28.4795C4.89501 28.8178 5.36105 29.005 5.84484 28.9998H27.1461C27.6311 29.0064 28.0989 28.82 28.4466 28.4816C28.7942 28.1433 28.9933 27.6807 29 27.1956V5.80201C28.9931 5.31721 28.7938 4.85502 28.4462 4.51712C28.0985 4.17921 27.6308 3.99327 27.1461 4.00019" fill="#E717A7"/>
</svg>
