<svg width="32" height="32" viewBox="0 0 32 32" fill="none" xmlns="http://www.w3.org/2000/svg">
<path d="M26.3382 10.4768C26.3541 10.7155 26.3541 10.9542 26.3541 11.1951C26.3541 18.5349 20.9882 27 11.1766 27V26.9956C8.27816 27 5.43998 26.1355 3 24.5054C3.42145 24.5582 3.84501 24.5846 4.26963 24.5857C6.67158 24.5879 9.00487 23.7486 10.8945 22.2032C8.61194 22.1581 6.61032 20.6083 5.91107 18.3457C6.71066 18.5063 7.53455 18.4733 8.31936 18.2501C5.83079 17.7265 4.04042 15.4496 4.04042 12.8054V12.735C4.78192 13.1651 5.61215 13.4038 6.46139 13.4302C4.11753 11.799 3.39504 8.55196 4.81044 6.01332C7.51871 9.48361 11.5146 11.5933 15.8041 11.8166C15.3742 9.88728 15.9614 7.86561 17.3473 6.50939C19.4957 4.40633 22.8747 4.51412 24.8943 6.75028C26.0889 6.50499 27.2339 6.04852 28.2817 5.40176C27.8835 6.68758 27.0501 7.77981 25.9368 8.47387C26.9941 8.34408 28.0272 8.0493 29 7.59942C28.2839 8.71695 27.3818 9.69039 26.3382 10.4768Z" fill="#E717A7"/>
</svg>
